<svg width="1440" height="2001" viewBox="0 0 1440 2001" fill="none" xmlns="http://www.w3.org/2000/svg">
<mask id="mask0_1337_95" style="mask-type:alpha" maskUnits="userSpaceOnUse" x="0" y="0" width="1440" height="2002">
<path d="M6.85449 58V1760" stroke="white" stroke-width="1.24635"/>
<path d="M56.8545 58V1760" stroke="white" stroke-width="1.24635"/>
<path d="M106.854 58V1760" stroke="white" stroke-width="1.24635"/>
<path d="M156.854 58V1760" stroke="white" stroke-width="1.24635"/>
<path d="M206.854 58V1760" stroke="white" stroke-width="1.24635"/>
<path d="M256.854 58V1760" stroke="white" stroke-width="1.24635"/>
<path d="M306.854 58V1760" stroke="white" stroke-width="1.24635"/>
<path d="M356.854 58V1760" stroke="white" stroke-width="1.24635"/>
<path d="M406.854 58V1760" stroke="white" stroke-width="1.24635"/>
<path d="M456.854 58V1760" stroke="white" stroke-width="1.24635"/>
<path d="M506.854 58V1760" stroke="white" stroke-width="1.24635"/>
<path d="M556.854 58V1760" stroke="white" stroke-width="1.24635"/>
<path d="M606.854 58V1760" stroke="white" stroke-width="1.24635"/>
<path d="M656.854 58V1760" stroke="white" stroke-width="1.24635"/>
<path d="M706.854 58V1760" stroke="white" stroke-width="1.24635"/>
<path d="M756.854 58V1760" stroke="white" stroke-width="1.24635"/>
<path d="M806.854 58V1760" stroke="white" stroke-width="1.24635"/>
<path d="M856.854 58V1760" stroke="white" stroke-width="1.24635"/>
<path d="M906.854 58V1760" stroke="white" stroke-width="1.24635"/>
<path d="M956.854 58V1760" stroke="white" stroke-width="1.24635"/>
<path d="M1006.85 58V1760" stroke="white" stroke-width="1.24635"/>
<path d="M1056.85 58V1760" stroke="white" stroke-width="1.24635"/>
<path d="M1106.85 58V1760" stroke="white" stroke-width="1.24635"/>
<path d="M1156.85 58V1760" stroke="white" stroke-width="1.24635"/>
<path d="M1206.85 58V1760" stroke="white" stroke-width="1.24635"/>
<path d="M1256.85 58V1760" stroke="white" stroke-width="1.24635"/>
<path d="M1306.85 58V1760" stroke="white" stroke-width="1.24635"/>
<path d="M1356.85 58V1760" stroke="white" stroke-width="1.24635"/>
<path d="M1406.85 58V1760" stroke="white" stroke-width="1.24635"/>
<path d="M0 0.936035H1440" stroke="white" stroke-width="1.24635"/>
<path d="M0 50.936H1440" stroke="white" stroke-width="1.24635"/>
<path d="M0 100.936H1440" stroke="white" stroke-width="1.24635"/>
<path d="M0 150.936H1440" stroke="white" stroke-width="1.24635"/>
<path d="M0 200.936H1440" stroke="white" stroke-width="1.24635"/>
<path d="M0 250.936H1440" stroke="white" stroke-width="1.24635"/>
<path d="M0 300.936H1440" stroke="white" stroke-width="1.24635"/>
<path d="M0 350.936H1440" stroke="white" stroke-width="1.24635"/>
<path d="M0 400.936H1440" stroke="white" stroke-width="1.24635"/>
<path d="M0 450.936H1440" stroke="white" stroke-width="1.24635"/>
<path d="M0 500.936H1440" stroke="white" stroke-width="1.24635"/>
<path d="M0 550.936H1440" stroke="white" stroke-width="1.24635"/>
<path d="M0 600.936H1440" stroke="white" stroke-width="1.24635"/>
<path d="M0 650.936H1440" stroke="white" stroke-width="1.24635"/>
<path d="M0 700.936H1440" stroke="white" stroke-width="1.24635"/>
<path d="M0 750.936H1440" stroke="white" stroke-width="1.24635"/>
<path d="M0 800.936H1440" stroke="white" stroke-width="1.24635"/>
<path d="M0 850.936H1440" stroke="white" stroke-width="1.24635"/>
<path d="M0 900.936H1440" stroke="white" stroke-width="1.24635"/>
<path d="M0 950.936H1440" stroke="white" stroke-width="1.24635"/>
<path d="M0 1000.94H1440" stroke="white" stroke-width="1.24635"/>
<path d="M0 1050.94H1440" stroke="white" stroke-width="1.24635"/>
<path d="M0 1100.94H1440" stroke="white" stroke-width="1.24635"/>
<path d="M0 1150.94H1440" stroke="white" stroke-width="1.24635"/>
<path d="M0 1200.94H1440" stroke="white" stroke-width="1.24635"/>
<path d="M0 1250.94H1440" stroke="white" stroke-width="1.24635"/>
<path d="M0 1300.94H1440" stroke="white" stroke-width="1.24635"/>
<path d="M0 1350.94H1440" stroke="white" stroke-width="1.24635"/>
<path d="M0 1400.94H1440" stroke="white" stroke-width="1.24635"/>
<path d="M0 1450.94H1440" stroke="white" stroke-width="1.24635"/>
<path d="M0 1500.94H1440" stroke="white" stroke-width="1.24635"/>
<path d="M0 1550.94H1440" stroke="white" stroke-width="1.24635"/>
<path d="M0 1600.94H1440" stroke="white" stroke-width="1.24635"/>
<path d="M0 1650.94H1440" stroke="white" stroke-width="1.24635"/>
<path d="M0 1700.94H1440" stroke="white" stroke-width="1.24635"/>
<path d="M0 1750.94H1440" stroke="white" stroke-width="1.24635"/>
<path d="M0 1800.94H1440" stroke="white" stroke-width="1.24635"/>
<path d="M0 1850.94H1440" stroke="white" stroke-width="1.24635"/>
<path d="M0 1900.94H1440" stroke="white" stroke-width="1.24635"/>
<path d="M0 1950.94H1440" stroke="white" stroke-width="1.24635"/>
<path d="M0 2000.94H1440" stroke="white" stroke-width="1.24635"/>
</mask>
<g mask="url(#mask0_1337_95)">
<g filter="url(#filter0_f_1337_95)">
<circle cx="719.749" cy="831.749" r="435.749" fill="white"/>
</g>
</g>
<defs>
<filter id="filter0_f_1337_95" x="-177.517" y="-65.5165" width="1794.53" height="1794.53" filterUnits="userSpaceOnUse" color-interpolation-filters="sRGB">
<feFlood flood-opacity="0" result="BackgroundImageFix"/>
<feBlend mode="normal" in="SourceGraphic" in2="BackgroundImageFix" result="shape"/>
<feGaussianBlur stdDeviation="230.758" result="effect1_foregroundBlur_1337_95"/>
</filter>
</defs>
</svg>
