<svg width="1504" height="500" viewBox="0 0 1504 500" fill="none" xmlns="http://www.w3.org/2000/svg">
<mask id="mask0_1251_363" style="mask-type:alpha" maskUnits="userSpaceOnUse" x="4" y="0" width="1500" height="357">
<mask id="mask1_1251_363" style="mask-type:alpha" maskUnits="userSpaceOnUse" x="4" y="0" width="1500" height="534">
<path d="M299.499 232.253C308.454 241.207 312.83 252.024 312.83 264.871H374.733C374.733 206.161 324.82 156.918 266.796 156.918H189.709H112.038C99.1905 156.918 88.2893 152.441 79.3348 143.486C70.3803 134.142 65.903 123.047 65.903 110.199C65.903 97.7403 70.3803 86.8392 79.3348 77.4953C88.2893 68.5408 99.1905 64.0635 112.038 64.0635H374.644V2.16052H112.038C97.2439 2.16052 83.4227 4.88581 70.575 10.3364C58.1165 15.787 46.4367 23.7682 35.5355 34.28C25.0237 44.7918 17.2371 56.277 12.1759 68.7355C6.72529 81.5833 4 95.4044 4 110.199V114.287C4.38933 115.455 4.58399 116.817 4.58399 118.375V121.879C4.97332 123.047 5.16798 124.409 5.16798 125.967C7.11462 139.204 11.0079 151.273 16.8478 162.174C23.077 173.464 31.2529 183.392 41.3754 191.958C51.4979 200.912 62.3991 207.531 74.0789 211.813C85.7587 216.485 98.4118 218.821 112.038 218.821H189.709H266.796C279.644 218.821 290.545 223.298 299.499 232.253Z" fill="#5ED1F7"/>
<path d="M1111.03 2.16052C1096.24 2.16052 1082.42 4.88581 1069.57 10.3364C1057.11 15.3976 1045.62 23.1842 1035.11 33.696C1035.02 33.7952 1034.92 33.8944 1034.83 33.9937C1034.73 34.089 1034.63 34.1844 1034.53 34.28C1024.02 44.7918 1016.23 56.277 1011.17 68.7355C1005.72 81.5833 1002.99 95.4044 1002.99 110.199L1002.99 264.871H1064.9V110.199C1064.9 97.7403 1069.37 86.8392 1078.33 77.4953C1087.67 68.5408 1098.57 64.0635 1111.03 64.0635H1170.55V2.16052L1111.03 2.16052Z" fill="#D9D9D9"/>
<path d="M1217.74 2.16052L1217.74 264.711H1279.53V2.16052L1217.74 2.16052Z" fill="#E8D575" fill-opacity="0.88"/>
<path d="M1346.42 55.9159C1335.96 66.3772 1328.11 78.0773 1322.88 91.0162C1317.65 103.404 1315.04 117.032 1315.04 131.898C1315.04 132.035 1315.04 132.173 1315.04 132.311C1315.04 132.448 1315.04 132.586 1315.04 132.723C1315.04 147.589 1317.65 161.217 1322.88 173.605C1328.11 186.544 1335.96 198.244 1346.42 208.705L1385.52 247.802L1429.29 204.03L1390.19 164.933C1381.38 156.124 1376.84 145.249 1376.56 132.311C1376.84 119.372 1381.38 108.497 1390.19 99.688L1432.28 57.5989L1388.51 13.8269L1346.42 55.9159Z" fill="#E8D575" fill-opacity="0.88"/>
<path d="M568.357 2.61791C537.828 -2.62202 501.107 0.0524244 477.172 10.2068C464.713 15.2681 453.228 23.0546 442.716 33.5664C442.621 33.6656 442.525 33.7648 442.43 33.8641C442.331 33.9594 442.231 34.0548 442.132 34.1504C431.62 44.6622 423.834 56.1474 418.773 68.6059C413.322 81.4537 410.597 95.2748 410.597 110.069V264.742H472.5V110.069C472.5 97.6108 476.977 86.7096 485.931 77.3657C495.275 68.4112 506.176 63.934 518.635 63.934H553.945C566.404 63.934 577.305 68.4112 586.649 77.3657C595.603 86.7096 600.08 97.6108 600.08 110.069V130.794H600.17V145.077C600.17 157.535 595.693 168.436 586.738 177.78C577.395 186.735 566.493 191.212 554.035 191.212H516.027V253.115H554.035C568.829 253.115 582.65 250.39 595.498 244.939C607.957 239.878 619.442 232.091 629.954 221.58C630.049 221.48 630.145 221.381 630.24 221.282C630.339 221.187 630.439 221.091 630.538 220.996C641.05 210.484 648.836 198.999 653.897 186.54C667.338 154.859 667.674 100.776 653.897 68.3033C648.836 55.8449 641.05 44.3597 630.538 33.8479C630.439 33.7522 630.339 33.6568 630.24 33.5616C630.145 33.4623 630.049 33.363 629.954 33.2639C619.442 22.752 607.957 14.9655 595.498 9.90424C586.888 6.25154 577.841 3.82276 568.357 2.61791Z" fill="#D4088C"/>
<path d="M793.856 5.08429C824.305 -0.600701 861.062 1.53747 885.143 11.3414C897.674 16.2203 909.271 23.8383 919.935 34.1956C920.032 34.2934 920.129 34.3912 920.226 34.4891C920.327 34.5829 920.427 34.6768 920.528 34.771C931.192 45.1283 939.145 56.4986 944.388 68.8819C950.025 81.6487 952.952 95.4286 953.168 110.221L955.426 264.878L893.529 265.781L891.272 111.125C891.09 98.6679 886.454 87.8332 877.364 78.621C867.89 69.8039 856.925 65.4862 844.468 65.668L809.162 66.1834C796.704 66.3653 785.87 71.0012 776.658 80.0911C767.841 89.5647 763.523 100.53 763.705 112.987L764.007 133.71L763.917 133.711L764.126 147.992C764.308 160.449 768.944 171.284 778.034 180.496C787.507 189.313 798.472 193.631 810.93 193.449L848.934 192.894L849.837 254.791L811.833 255.346C797.04 255.562 783.181 253.038 770.255 247.776C757.724 242.897 746.126 235.279 735.462 224.922C735.365 224.824 735.268 224.726 735.172 224.628C735.071 224.534 734.97 224.44 734.87 224.346C724.205 213.989 716.252 202.619 711.01 190.235C697.108 158.754 695.983 104.682 709.284 72.0113C714.163 59.4803 721.781 47.8827 732.138 37.2185C732.236 37.1214 732.334 37.0246 732.431 36.9279C732.525 36.8272 732.619 36.7266 732.713 36.6261C743.071 25.9619 754.441 18.0085 766.824 12.766C775.38 8.98801 784.391 6.42744 793.856 5.08429Z" fill="#D4088C"/>
<path d="M299.499 301.325C308.454 292.37 312.83 281.554 312.83 268.706H374.733C374.733 327.417 324.82 376.66 266.796 376.66H189.709H112.038C99.1905 376.66 88.2893 381.137 79.3348 390.091C70.3803 399.435 65.903 410.531 65.903 423.379C65.903 435.837 70.3803 446.739 79.3348 456.082C88.2893 465.037 99.1905 469.514 112.038 469.514H374.644V531.417H112.038C97.2439 531.417 83.4227 528.692 70.575 523.241C58.1165 517.791 46.4367 509.81 35.5355 499.298C25.0237 488.786 17.2371 477.301 12.1759 464.842C6.72529 451.994 4 438.173 4 423.379V419.291C4.38933 418.123 4.58399 416.76 4.58399 415.203V411.699C4.97332 410.531 5.16798 409.169 5.16798 407.611C7.11462 394.374 11.0079 382.305 16.8478 371.404C23.077 360.113 31.2529 350.185 41.3754 341.62C51.4979 332.666 62.3991 326.047 74.0789 321.765C85.7587 317.093 98.4118 314.757 112.038 314.757H189.709H266.796C279.644 314.757 290.545 310.279 299.499 301.325Z" fill="#5ED1F7"/>
<path d="M1111.03 531.417C1096.24 531.417 1082.41 528.692 1069.57 523.241C1057.11 518.18 1045.62 510.394 1035.11 499.882C1035.02 499.783 1034.92 499.683 1034.83 499.584C1034.73 499.489 1034.63 499.393 1034.53 499.298C1024.02 488.786 1016.23 477.301 1011.17 464.842C1005.72 451.994 1002.99 438.173 1002.99 423.379L1002.99 268.706H1064.9V423.379C1064.9 435.837 1069.37 446.739 1078.33 456.082C1087.67 465.037 1098.57 469.514 1111.03 469.514H1170.55V531.417H1111.03Z" fill="#D9D9D9"/>
<path d="M1217.74 531.417L1217.74 268.867H1279.53V531.417H1217.74Z" fill="#E8D575" fill-opacity="0.88"/>
<path d="M1346.42 477.662C1335.96 467.201 1328.11 455.5 1322.88 442.562C1317.65 430.173 1315.04 416.546 1315.04 401.68C1315.04 401.542 1315.04 401.405 1315.04 401.267C1315.04 401.13 1315.04 400.992 1315.04 400.854C1315.04 385.988 1317.65 372.361 1322.88 359.973C1328.11 347.034 1335.96 335.334 1346.42 324.873L1385.52 285.775L1429.29 329.547L1390.19 368.645C1381.38 377.454 1376.84 388.328 1376.56 401.267C1376.84 414.206 1381.38 425.08 1390.19 433.89L1432.28 475.979L1388.51 519.751L1346.42 477.662Z" fill="#E8D575" fill-opacity="0.88"/>
<path d="M568.358 530.96C537.829 536.2 501.108 533.525 477.173 523.371C464.714 518.31 453.229 510.523 442.717 500.011C442.622 499.912 442.526 499.813 442.431 499.714C442.332 499.619 442.232 499.523 442.133 499.427C431.621 488.916 423.835 477.43 418.774 464.972C413.323 452.124 410.598 438.303 410.598 423.509V268.836H472.501V423.509C472.501 435.967 476.978 446.868 485.932 456.212C495.276 465.167 506.177 469.644 518.636 469.644H553.946C566.404 469.644 577.306 465.167 586.65 456.212C595.604 446.868 600.081 435.967 600.081 423.509V402.784H600.171V388.501C600.171 376.043 595.694 365.142 586.739 355.798C577.396 346.843 566.494 342.366 554.036 342.366H516.028V280.463H554.036C568.83 280.463 582.651 283.188 595.499 288.639C607.958 293.7 619.443 301.487 629.955 311.998C630.05 312.098 630.146 312.197 630.241 312.296C630.34 312.391 630.439 312.487 630.539 312.582C641.051 323.094 648.837 334.579 653.898 347.038C667.339 378.719 667.675 432.801 653.898 465.275C648.837 477.733 641.051 489.218 630.539 499.73C630.439 499.826 630.34 499.921 630.241 500.016C630.146 500.116 630.05 500.215 629.955 500.314C619.443 510.826 607.958 518.612 595.499 523.674C586.889 527.326 577.842 529.755 568.358 530.96Z" fill="#D4088C"/>
<path d="M793.857 528.493C824.306 534.178 861.063 532.04 885.144 522.236C897.675 517.357 909.272 509.739 919.936 499.382C920.033 499.284 920.13 499.187 920.227 499.089C920.328 498.995 920.428 498.901 920.529 498.807C931.193 488.449 939.146 477.079 944.389 464.696C950.026 451.929 952.953 438.149 953.169 423.356L955.427 268.7L893.53 267.797L891.273 422.453C891.091 434.91 886.455 445.745 877.365 454.957C867.891 463.774 856.926 468.092 844.469 467.91L809.163 467.394C796.705 467.212 785.871 462.577 776.659 453.487C767.841 444.013 763.524 433.048 763.706 420.591L764.008 399.868L763.918 399.867L764.127 385.585C764.309 373.128 768.945 362.294 778.034 353.082C787.508 344.264 798.473 339.947 810.931 340.129L848.935 340.683L849.838 278.787L811.834 278.232C797.041 278.016 783.182 280.539 770.256 285.802C757.725 290.681 746.127 298.299 735.463 308.656C735.366 308.754 735.269 308.852 735.172 308.95C735.072 309.043 734.971 309.137 734.871 309.232C724.206 319.589 716.253 330.959 711.011 343.342C697.109 374.824 695.984 428.896 709.285 461.566C714.164 474.098 721.782 485.695 732.139 496.359C732.237 496.456 732.335 496.553 732.432 496.65C732.526 496.751 732.62 496.851 732.714 496.952C743.072 507.616 754.442 515.569 766.825 520.812C775.381 524.59 784.392 527.15 793.857 528.493Z" fill="#D4088C"/>
</mask>
<g mask="url(#mask1_1251_363)">
<rect x="-49" y="-55" width="1553" height="412" fill="#D9D9D9"/>
</g>
</mask>
<g mask="url(#mask0_1251_363)">
<rect x="-9" width="396" height="490" fill="#5ED1F7"/>
<rect x="384" y="5" width="306" height="490" fill="#D4088C"/>
<rect x="680" y="10" width="306" height="490" fill="#937DC2"/>
<rect x="976" y="5" width="219" height="490" fill="#D9D9D9"/>
<rect x="1195" y="-18" width="253" height="518" fill="#E8D575"/>
</g>
</svg>
