<svg width="107" height="107" viewBox="0 0 107 107" fill="none" xmlns="http://www.w3.org/2000/svg">
<circle cx="53.4668" cy="53.4668" r="53.4668" fill="white" fill-opacity="0.03"/>
<circle cx="53.4668" cy="53.4668" r="53.4668" fill="url(#paint0_radial_1359_304)" fill-opacity="0.1"/>
<circle cx="53.4668" cy="53.4668" r="52.4668" stroke="url(#paint1_linear_1359_304)" stroke-opacity="0.1" stroke-width="2"/>
<path d="M68.8227 69.9232C67.0366 73.6958 64.3192 76.8641 60.9695 79.0794C57.6199 81.2948 53.7679 82.4712 49.8377 82.4792C48.1506 82.4869 46.469 82.2721 44.8303 81.8399L48.0993 74.0531C50.9852 74.465 53.9174 73.8675 56.4645 72.3488C59.0116 70.8301 61.0389 68.4703 62.248 65.6168C63.4571 62.7633 63.7841 59.5669 63.1809 56.4982C62.5776 53.4294 61.076 50.6504 58.8971 48.5703L62.1661 40.8091C66.327 43.9989 69.2875 48.692 70.509 54.0348C71.7306 59.3777 71.1323 65.0155 68.8227 69.9232Z" fill="#0C62E4"/>
<path d="M64.1696 25.7485L60.948 33.3563C58.5717 32.6026 56.0494 32.5627 53.6536 33.2409C51.2577 33.9192 49.0793 35.2897 47.3535 37.2046C45.6278 39.1196 44.4202 41.5061 43.8612 44.1066C43.3023 46.707 43.4131 49.4226 44.1819 51.9602C45.1442 55.1897 47.1285 57.9524 49.7884 59.7661L46.5668 67.3867C41.8063 64.4654 38.273 59.6803 36.7009 54.0253C35.1287 48.3703 35.6385 42.2801 38.1244 37.0195C40.4607 32.0584 44.3896 28.1806 49.1805 26.1074C53.9713 24.0341 59.298 23.9066 64.1696 25.7485Z" fill="#0C62E4"/>
<path d="M59.1107 64.6233C58.2458 66.455 56.8889 67.9635 55.2169 68.9522C53.5448 69.9409 51.6352 70.3639 49.7368 70.1661L57.1884 52.5532C58.6745 54.0723 59.6646 56.0686 60.0111 58.244C60.3575 60.4194 60.0417 62.6573 59.1107 64.6233Z" fill="#0C62E4"/>
<path d="M59.1504 37.6461L51.6335 55.4188C49.679 54.1956 48.2165 52.233 47.5302 49.9124C46.8439 47.5919 46.983 45.0793 47.9203 42.863C48.8577 40.6468 50.5263 38.8854 52.6018 37.9212C54.6774 36.957 57.0115 36.8589 59.1504 37.6461Z" fill="#0C62E4"/>
<defs>
<radialGradient id="paint0_radial_1359_304" cx="0" cy="0" r="1" gradientUnits="userSpaceOnUse" gradientTransform="translate(67.1008 36.4911) rotate(118.676) scale(74.6532)">
<stop stop-color="white"/>
<stop offset="0.362087" stop-color="#969696"/>
<stop offset="0.673012" stop-color="#343434"/>
<stop offset="1"/>
</radialGradient>
<linearGradient id="paint1_linear_1359_304" x1="79.7992" y1="8.28735" x2="53.4668" y2="53.4668" gradientUnits="userSpaceOnUse">
<stop stop-color="white"/>
<stop offset="1" stop-color="white" stop-opacity="0"/>
</linearGradient>
</defs>
</svg>
