<svg width="308" height="308" viewBox="0 0 308 308" fill="none" xmlns="http://www.w3.org/2000/svg">
<circle cx="154" cy="154" r="154" fill="#0C62E4" fill-opacity="0.05"/>
<circle cx="154" cy="154" r="154" fill="url(#paint0_radial_1768_81)" fill-opacity="0.1"/>
<circle cx="154" cy="154" r="153" stroke="url(#paint1_linear_1768_81)" stroke-opacity="0.1" stroke-width="2"/>
<path d="M186.713 191.22C182.618 199.867 176.386 207.129 168.705 212.207C161.024 217.285 152.191 219.981 143.179 220C139.31 220.017 135.454 219.525 131.697 218.534L139.193 200.686C145.81 201.63 152.534 200.261 158.375 196.78C164.216 193.298 168.864 187.89 171.637 181.349C174.41 174.809 175.159 167.482 173.776 160.448C172.393 153.414 168.949 147.045 163.953 142.277L171.449 124.487C180.991 131.799 187.779 142.556 190.58 154.802C193.381 167.048 192.009 179.971 186.713 191.22Z" fill="#0C62E4"/>
<path d="M176.043 89.9669L168.656 107.405C163.207 105.677 157.423 105.586 151.929 107.14C146.435 108.695 141.44 111.836 137.483 116.226C133.525 120.615 130.756 126.085 129.474 132.045C128.193 138.006 128.447 144.23 130.21 150.047C132.416 157.449 136.966 163.782 143.066 167.939L135.679 185.406C124.762 178.71 116.66 167.742 113.055 154.78C109.45 141.818 110.619 127.859 116.319 115.801C121.677 104.43 130.686 95.5416 141.672 90.7895C152.658 86.0374 164.872 85.7451 176.043 89.9669Z" fill="#0C62E4"/>
<path d="M164.443 179.072C162.459 183.27 159.348 186.728 155.514 188.994C151.68 191.26 147.301 192.23 142.948 191.777L160.035 151.406C163.442 154.888 165.713 159.464 166.507 164.45C167.302 169.436 166.578 174.566 164.443 179.072Z" fill="#0C62E4"/>
<path d="M164.534 117.237L147.297 157.974C142.815 155.171 139.461 150.672 137.888 145.353C136.314 140.034 136.633 134.275 138.782 129.195C140.932 124.115 144.758 120.078 149.517 117.868C154.277 115.658 159.629 115.433 164.534 117.237Z" fill="#0C62E4"/>
<defs>
<radialGradient id="paint0_radial_1768_81" cx="0" cy="0" r="1" gradientUnits="userSpaceOnUse" gradientTransform="translate(193.27 105.105) rotate(118.676) scale(215.023)">
<stop stop-color="white"/>
<stop offset="0.362087" stop-color="#969696"/>
<stop offset="0.673012" stop-color="#343434"/>
<stop offset="1"/>
</radialGradient>
<linearGradient id="paint1_linear_1768_81" x1="229.845" y1="23.87" x2="154" y2="154" gradientUnits="userSpaceOnUse">
<stop stop-color="white"/>
<stop offset="1" stop-color="white" stop-opacity="0"/>
</linearGradient>
</defs>
</svg>
