<svg width="32" height="19" viewBox="0 0 32 19" fill="none" xmlns="http://www.w3.org/2000/svg">
<path d="M15.5556 0C11.4073 0 8.81475 2.07355 7.77758 6.22027C9.33333 4.14671 11.1482 3.36942 13.2221 3.88762C14.4056 4.18328 15.2513 5.04188 16.1877 5.9919C17.7128 7.53948 19.4778 9.33059 23.3335 9.33059C27.4814 9.33059 30.0743 7.25704 31.1111 3.10994C29.5557 5.18349 27.7409 5.96117 25.6666 5.44298C24.4835 5.14731 23.6378 4.28871 22.7013 3.33869C21.1763 1.79111 19.4109 0 15.5556 0V0ZM7.77758 9.33059C3.62969 9.33059 1.03678 11.4041 0 15.5512C1.55536 13.4777 3.37021 12.7 5.44454 13.2186C6.6276 13.5147 7.47336 14.3729 8.40977 15.3225C9.93478 16.8701 11.7002 18.6616 15.5556 18.6616C19.7038 18.6616 22.2964 16.588 23.3335 12.4409C21.7778 14.5145 19.9629 15.2922 17.889 14.7736C16.7055 14.4783 15.8598 13.6193 14.9234 12.6697C13.3984 11.1221 11.6333 9.33059 7.77758 9.33059V9.33059Z" fill="#06B6D4"/>
</svg>
