<svg width="25" height="42" viewBox="0 0 25 42" fill="none" xmlns="http://www.w3.org/2000/svg">
<path d="M23.3684 32.6468C22.1042 35.3168 20.1811 37.5591 17.8104 39.127C15.4397 40.6949 12.7135 41.5276 9.93181 41.5331C8.73794 41.5386 7.54766 41.3867 6.38804 41.0807L8.70161 35.5696C10.7441 35.8612 12.8192 35.4383 14.622 34.3634C16.4247 33.2886 17.8594 31.6185 18.7152 29.5989C19.5709 27.5794 19.8023 25.3173 19.3753 23.1454C18.9485 20.9736 17.8857 19.0066 16.3435 17.5344L18.6571 12.0417C21.602 14.2993 23.6973 17.6205 24.5617 21.4019C25.4264 25.1833 25.003 29.1734 23.3684 32.6468Z" fill="url(#paint0_linear_1251_350)"/>
<path d="M20.075 1.38267L17.795 6.76693C16.1131 6.23356 14.328 6.20537 12.6324 6.68538C10.9367 7.16539 9.39512 8.13543 8.17362 9.49069C6.95232 10.8459 6.09769 12.535 5.70207 14.3753C5.30644 16.2159 5.38478 18.1378 5.92892 19.9337C6.61005 22.2193 8.01432 24.1745 9.89688 25.4583L7.6168 30.8517C4.24767 28.7841 1.74697 25.3975 0.634273 21.3953C-0.478429 17.3929 -0.117619 13.0827 1.64178 9.35957C3.29522 5.84835 6.07593 3.10396 9.46664 1.63664C12.8573 0.169332 16.6272 0.0790631 20.075 1.38267Z" fill="url(#paint1_linear_1251_350)"/>
<path d="M16.4947 28.8959C15.8826 30.1923 14.9222 31.2598 13.739 31.9597C12.5555 32.6593 11.204 32.9586 9.86049 32.8188L15.1343 20.3534C16.1861 21.4284 16.8867 22.8414 17.1319 24.381C17.3771 25.9207 17.1537 27.5045 16.4947 28.8959Z" fill="url(#paint2_linear_1251_350)"/>
<path d="M16.5228 9.80307L11.2028 22.3815C9.81951 21.5159 8.78438 20.1267 8.2987 18.4844C7.81302 16.8422 7.9114 15.0638 8.57475 13.4954C9.23809 11.9269 10.4191 10.6802 11.8881 9.99776C13.357 9.3153 15.009 9.24586 16.5228 9.80307Z" fill="url(#paint3_linear_1251_350)"/>
<defs>
<linearGradient id="paint0_linear_1251_350" x1="-8.58032" y1="25.8973" x2="25.0091" y2="25.8059" gradientUnits="userSpaceOnUse">
<stop offset="0.9999" stop-color="#3770FF"/>
<stop offset="1" stop-color="#FF5733"/>
</linearGradient>
<linearGradient id="paint1_linear_1251_350" x1="8.11238e-05" y1="40.7937" x2="31.1415" y2="40.7127" gradientUnits="userSpaceOnUse">
<stop stop-color="#FF5733"/>
<stop offset="0.0001" stop-color="#3264E3"/>
</linearGradient>
<linearGradient id="paint2_linear_1251_350" x1="-33.4553" y1="33.162" x2="51.3901" y2="32.9147" gradientUnits="userSpaceOnUse">
<stop offset="0.9999" stop-color="#3770FF"/>
<stop offset="1" stop-color="#FF5733"/>
</linearGradient>
<linearGradient id="paint3_linear_1251_350" x1="7.50343e-05" y1="30.3045" x2="25.0066" y2="30.2339" gradientUnits="userSpaceOnUse">
<stop offset="0.9999" stop-color="#3770FF"/>
<stop offset="1" stop-color="#FF5733"/>
</linearGradient>
</defs>
</svg>
