<svg width="47" height="49" viewBox="0 0 47 49" fill="none" xmlns="http://www.w3.org/2000/svg">
<mask id="mask0_1183_206" style="mask-type:luminance" maskUnits="userSpaceOnUse" x="0" y="0" width="47" height="49">
<path d="M46.8855 0.7901H0V48.326H46.8855V0.7901Z" fill="white"/>
</mask>
<g mask="url(#mask0_1183_206)">
<path d="M16.6909 29.8861L5.06885 39.0247L0 36.4774V12.6584L5.04942 10.0915L16.5908 19.2507L34.864 0.7901L46.8855 5.62275V43.4129L34.9242 48.326L16.6909 29.8861ZM34.5054 33.1013V16.0159L23.5657 24.5689L34.5054 33.1013ZM5.47032 30.0274L11.2205 24.7504L5.47032 18.9633V30.0274Z" fill="#0179CB"/>
<path d="M16.6909 29.8861L5.06885 39.0247L0 36.4774V12.6584L5.04942 10.0915L16.5908 19.2507L34.864 0.7901L46.8855 5.62275V43.4129L34.9242 48.326L16.6909 29.8861ZM34.5054 33.1013V16.0159L23.5657 24.5689L34.5054 33.1013ZM5.47032 30.0274L11.2205 24.7504L5.47032 18.9633V30.0274Z" fill="#0179CB"/>
</g>
</svg>
